<svg width="129" height="34" viewBox="0 0 129 34" fill="none" xmlns="http://www.w3.org/2000/svg">
<path d="M7.24253 23.192C5.11453 23.192 3.41053 22.792 2.13053 21.992C0.850531 21.176 0.210531 19.936 0.210531 18.272C0.210531 17.392 0.362531 16.72 0.666531 16.256C0.970531 15.792 1.41853 15.56 2.01053 15.56C2.44253 15.56 2.79453 15.672 3.06653 15.896C3.33853 16.12 3.47453 16.408 3.47453 16.76C3.47453 17.08 3.45053 17.36 3.40253 17.6C3.40253 17.664 3.38653 17.776 3.35453 17.936C3.33853 18.096 3.33053 18.264 3.33053 18.44C3.33053 19.16 3.69053 19.696 4.41053 20.048C5.14653 20.4 6.17053 20.576 7.48253 20.576C8.84253 20.576 9.90653 20.336 10.6745 19.856C11.4425 19.36 11.8265 18.672 11.8265 17.792C11.8265 17.248 11.6505 16.784 11.2985 16.4C10.9465 16 10.5065 15.672 9.97853 15.416C9.45053 15.144 8.70653 14.816 7.74653 14.432C6.51453 13.952 5.50653 13.496 4.72253 13.064C3.95453 12.632 3.29053 12.048 2.73053 11.312C2.18653 10.56 1.91453 9.632 1.91453 8.528C1.91453 7.376 2.21853 6.352 2.82653 5.456C3.45053 4.56 4.33853 3.864 5.49053 3.368C6.65853 2.872 8.02653 2.624 9.59453 2.624C10.7625 2.624 11.8345 2.8 12.8105 3.152C13.7865 3.488 14.5625 4.008 15.1385 4.712C15.7305 5.416 16.0265 6.28 16.0265 7.304C16.0265 8.312 15.8745 9.072 15.5705 9.584C15.2665 10.096 14.8185 10.352 14.2265 10.352C13.8105 10.352 13.4585 10.224 13.1705 9.968C12.8985 9.712 12.7625 9.408 12.7625 9.056C12.7625 8.752 12.7865 8.472 12.8345 8.216C12.8825 7.736 12.9065 7.432 12.9065 7.304C12.9065 6.632 12.5785 6.12 11.9225 5.768C11.2665 5.416 10.4505 5.24 9.47453 5.24C8.09853 5.24 7.04253 5.496 6.30653 6.008C5.58653 6.504 5.22653 7.208 5.22653 8.12C5.22653 8.728 5.41053 9.248 5.77853 9.68C6.16253 10.112 6.63453 10.472 7.19453 10.76C7.75453 11.048 8.53853 11.392 9.54653 11.792C10.7625 12.288 11.7385 12.736 12.4745 13.136C13.2105 13.536 13.8345 14.08 14.3465 14.768C14.8745 15.456 15.1385 16.304 15.1385 17.312C15.1385 19.2 14.4185 20.656 12.9785 21.68C11.5545 22.688 9.64253 23.192 7.24253 23.192ZM20.1392 23.12C19.1472 23.12 18.3552 22.76 17.7632 22.04C17.1712 21.32 16.8752 20.376 16.8752 19.208C16.8752 17.928 17.1712 16.72 17.7632 15.584C18.3552 14.432 19.1392 13.512 20.1152 12.824C21.1072 12.12 22.1552 11.768 23.2592 11.768C23.6112 11.768 23.8432 11.84 23.9552 11.984C24.0832 12.112 24.1872 12.352 24.2672 12.704C24.6032 12.64 24.9552 12.608 25.3232 12.608C26.1072 12.608 26.4992 12.888 26.4992 13.448C26.4992 13.784 26.3792 14.584 26.1392 15.848C25.7712 17.688 25.5872 18.968 25.5872 19.688C25.5872 19.928 25.6432 20.12 25.7552 20.264C25.8832 20.408 26.0432 20.48 26.2352 20.48C26.5392 20.48 26.9072 20.288 27.3392 19.904C27.7712 19.504 28.3552 18.864 29.0912 17.984C29.2832 17.76 29.4992 17.648 29.7392 17.648C29.9472 17.648 30.1072 17.744 30.2192 17.936C30.3472 18.128 30.4112 18.392 30.4112 18.728C30.4112 19.368 30.2592 19.864 29.9552 20.216C29.2992 21.032 28.6032 21.72 27.8672 22.28C27.1312 22.84 26.4192 23.12 25.7312 23.12C25.2032 23.12 24.7152 22.944 24.2672 22.592C23.8352 22.224 23.5072 21.728 23.2832 21.104C22.4512 22.448 21.4032 23.12 20.1392 23.12ZM21.0032 20.696C21.3552 20.696 21.6912 20.488 22.0112 20.072C22.3312 19.656 22.5632 19.104 22.7072 18.416L23.5952 14C22.9232 14.016 22.2992 14.272 21.7232 14.768C21.1632 15.248 20.7152 15.888 20.3792 16.688C20.0432 17.488 19.8752 18.336 19.8752 19.232C19.8752 19.728 19.9712 20.096 20.1632 20.336C20.3712 20.576 20.6512 20.696 21.0032 20.696ZM40.575 15.704C40.623 15.688 40.703 15.68 40.815 15.68C41.055 15.68 41.239 15.76 41.367 15.92C41.495 16.08 41.559 16.296 41.559 16.568C41.559 17.064 41.463 17.456 41.271 17.744C41.079 18.016 40.791 18.216 40.407 18.344C39.671 18.584 38.887 18.704 38.055 18.704C37.351 18.704 36.687 18.608 36.063 18.416C35.599 19.168 35.087 19.944 34.527 20.744C33.887 21.656 33.335 22.28 32.871 22.616C32.407 22.952 31.879 23.12 31.287 23.12C30.631 23.12 30.111 22.864 29.727 22.352C29.359 21.84 29.127 21.032 29.031 19.928C28.839 17.688 28.743 15.728 28.743 14.048V13.208C28.759 12.68 28.903 12.312 29.175 12.104C29.447 11.896 29.855 11.792 30.399 11.792C30.815 11.792 31.119 11.888 31.311 12.08C31.519 12.256 31.623 12.56 31.623 12.992C31.623 14.832 31.735 17.224 31.959 20.168C32.919 18.744 33.639 17.608 34.119 16.76C33.879 16.296 33.759 15.744 33.759 15.104C33.759 14.56 33.879 14.032 34.119 13.52C34.359 13.008 34.687 12.592 35.103 12.272C35.519 11.952 35.991 11.792 36.519 11.792C36.983 11.792 37.359 11.96 37.647 12.296C37.935 12.616 38.079 13.088 38.079 13.712C38.079 14.432 37.887 15.256 37.503 16.184C38.111 16.152 38.919 16.032 39.927 15.824L40.575 15.704ZM50.1802 17.648C50.3882 17.648 50.5482 17.744 50.6602 17.936C50.7882 18.128 50.8522 18.392 50.8522 18.728C50.8522 19.368 50.7002 19.864 50.3962 20.216C49.8042 20.936 48.9642 21.6 47.8762 22.208C46.8042 22.816 45.6522 23.12 44.4202 23.12C42.7402 23.12 41.4362 22.664 40.5082 21.752C39.5802 20.84 39.1162 19.592 39.1162 18.008C39.1162 16.904 39.3482 15.88 39.8122 14.936C40.2762 13.976 40.9162 13.216 41.7322 12.656C42.5642 12.096 43.5002 11.816 44.5402 11.816C45.4682 11.816 46.2122 12.096 46.7722 12.656C47.3322 13.2 47.6122 13.944 47.6122 14.888C47.6122 15.992 47.2122 16.944 46.4122 17.744C45.6282 18.528 44.2922 19.152 42.4042 19.616C42.8042 20.352 43.5642 20.72 44.6842 20.72C45.4042 20.72 46.2202 20.472 47.1322 19.976C48.0602 19.464 48.8602 18.8 49.5322 17.984C49.7242 17.76 49.9402 17.648 50.1802 17.648ZM44.1322 14.168C43.5402 14.168 43.0362 14.512 42.6202 15.2C42.2202 15.888 42.0202 16.72 42.0202 17.696V17.744C42.9642 17.52 43.7082 17.184 44.2522 16.736C44.7962 16.288 45.0682 15.768 45.0682 15.176C45.0682 14.872 44.9802 14.632 44.8042 14.456C44.6442 14.264 44.4202 14.168 44.1322 14.168ZM57.2981 11.816C57.6661 11.816 57.9221 11.864 58.0661 11.96C58.2101 12.056 58.2821 12.216 58.2821 12.44C58.2821 12.824 58.0741 14.192 57.6581 16.544C57.2901 18.8 57.0741 20.136 57.0101 20.552C56.4181 24.664 55.6021 27.92 54.5621 30.32C53.5221 32.72 52.1381 33.92 50.4101 33.92C49.5941 33.92 48.9301 33.664 48.4181 33.152C47.9061 32.656 47.6501 32 47.6501 31.184C47.6501 30.432 47.8181 29.664 48.1541 28.88C48.5061 28.096 49.1461 27.192 50.0741 26.168C51.0181 25.16 52.3461 24 54.0581 22.688L54.1301 22.136C54.2421 21.544 54.3701 20.696 54.5141 19.592C54.1941 20.744 53.7461 21.624 53.1701 22.232C52.5941 22.824 51.9861 23.12 51.3461 23.12C50.6261 23.12 50.0341 22.792 49.5701 22.136C49.1221 21.464 48.8981 20.632 48.8981 19.64C48.8981 18.44 48.9781 17.344 49.1381 16.352C49.2981 15.344 49.5621 14.28 49.9301 13.16C50.0901 12.68 50.3141 12.336 50.6021 12.128C50.8901 11.92 51.3461 11.816 51.9701 11.816C52.3221 11.816 52.5621 11.872 52.6901 11.984C52.8341 12.096 52.9061 12.264 52.9061 12.488C52.9061 12.616 52.8181 13.048 52.6421 13.784C52.4821 14.376 52.3541 14.912 52.2581 15.392C52.1301 16.048 52.0181 16.68 51.9221 17.288C51.8261 17.88 51.7781 18.368 51.7781 18.752C51.7781 19.36 51.9461 19.664 52.2821 19.664C52.5221 19.664 52.8181 19.424 53.1701 18.944C53.5381 18.464 53.9221 17.736 54.3221 16.76C54.7381 15.784 55.1381 14.584 55.5221 13.16C55.6501 12.68 55.8421 12.336 56.0981 12.128C56.3701 11.92 56.7701 11.816 57.2981 11.816ZM50.6741 31.592C51.0741 31.592 51.5221 31.128 52.0181 30.2C52.5141 29.272 53.0101 27.728 53.5061 25.568C52.2741 26.608 51.3781 27.552 50.8181 28.4C50.2741 29.264 50.0021 30.016 50.0021 30.656C50.0021 30.928 50.0501 31.152 50.1461 31.328C50.2581 31.504 50.4341 31.592 50.6741 31.592ZM72.0789 23.12C70.9749 23.12 69.9749 22.848 69.0789 22.304C68.1989 21.76 67.5029 20.976 66.9909 19.952C66.4789 18.912 66.2229 17.688 66.2229 16.28C66.2229 13.848 66.7429 11.6 67.7829 9.536C68.8229 7.456 70.3589 5.792 72.3909 4.544C74.4229 3.28 76.8629 2.648 79.7109 2.648C80.4469 2.648 81.2309 2.704 82.0629 2.816C82.9109 2.928 83.6789 3.096 84.3669 3.32C84.8149 3.448 85.0389 3.768 85.0389 4.28C85.0389 4.696 84.8789 5.088 84.5589 5.456C84.2549 5.824 83.8949 6.008 83.4789 6.008C83.3509 6.008 83.2549 6 83.1909 5.984C82.3589 5.792 81.6469 5.656 81.0549 5.576C80.4629 5.48 79.8389 5.432 79.1829 5.432C77.1509 5.432 75.4229 5.928 73.9989 6.92C72.5749 7.896 71.5109 9.192 70.8069 10.808C70.1029 12.424 69.7509 14.168 69.7509 16.04C69.7509 17.4 70.0149 18.456 70.5429 19.208C71.0869 19.944 71.7909 20.312 72.6549 20.312C73.6309 20.312 74.4869 19.912 75.2229 19.112C75.9589 18.312 76.6309 17.016 77.2389 15.224C77.8469 13.432 78.4469 11 79.0389 7.928C79.1349 7.48 79.3269 7.176 79.6149 7.016C79.9029 6.856 80.2869 6.776 80.7669 6.776C81.9029 6.776 82.4709 7.144 82.4709 7.88C82.4709 8.008 82.4469 8.168 82.3989 8.36C81.9829 9.912 81.5989 11.632 81.2469 13.52C80.9109 15.392 80.7429 16.816 80.7429 17.792C80.7429 18.656 80.8709 19.288 81.1269 19.688C81.3829 20.072 81.7749 20.264 82.3029 20.264C82.8149 20.264 83.3029 20.096 83.7669 19.76C84.2309 19.408 84.8149 18.816 85.5189 17.984C85.7109 17.76 85.9269 17.648 86.1669 17.648C86.3749 17.648 86.5349 17.744 86.6469 17.936C86.7749 18.128 86.8389 18.392 86.8389 18.728C86.8389 19.352 86.6869 19.848 86.3829 20.216C85.5989 21.16 84.8309 21.88 84.0789 22.376C83.3269 22.872 82.4069 23.12 81.3189 23.12C80.1989 23.12 79.2949 22.8 78.6069 22.16C77.9189 21.504 77.4869 20.584 77.3109 19.4C76.1269 21.88 74.3829 23.12 72.0789 23.12ZM94.4741 16.28C94.9221 16.28 95.1461 16.616 95.1461 17.288C95.1461 18.552 94.1541 19.184 92.1701 19.184C91.7861 19.184 91.2341 19.112 90.5141 18.968C90.7221 19.96 90.8901 21.064 91.0181 22.28C91.1621 23.48 91.2341 24.472 91.2341 25.256C91.2341 26.984 90.9541 28.304 90.3941 29.216C89.8341 30.128 89.0981 30.584 88.1861 30.584C87.0341 30.584 86.2101 29.768 85.7141 28.136C85.2341 26.504 84.9941 24.04 84.9941 20.744C84.9941 17.672 85.3221 14.56 85.9781 11.408C86.6501 8.24 87.5621 5.624 88.7141 3.56C89.8821 1.48 91.1621 0.439999 92.5541 0.439999C93.3061 0.439999 93.8901 0.775999 94.3061 1.448C94.7381 2.12 94.9541 3.024 94.9541 4.16C94.9541 7.92 92.7061 12.016 88.2101 16.448C88.0501 18.016 87.9701 19.392 87.9701 20.576C87.9701 22.224 88.0261 23.912 88.1381 25.64C88.2501 27.384 88.4341 28.256 88.6901 28.256C89.1701 28.256 89.4101 27.424 89.4101 25.76C89.4101 24.512 89.3221 23.304 89.1461 22.136C88.9861 20.968 88.7621 19.736 88.4741 18.44C88.4581 18.232 88.5221 17.968 88.6661 17.648C88.8261 17.328 89.0181 17.048 89.2421 16.808C89.4661 16.568 89.6661 16.448 89.8421 16.448C90.1621 16.448 90.5461 16.464 90.9941 16.496C91.1381 16.512 91.3061 16.52 91.4981 16.52C92.1381 16.52 92.8501 16.464 93.6341 16.352C93.7621 16.336 93.8981 16.32 94.0421 16.304C94.1861 16.288 94.3301 16.28 94.4741 16.28ZM92.0501 2.816C91.7621 2.816 91.4021 3.304 90.9701 4.28C90.5541 5.256 90.1381 6.552 89.7221 8.168C89.3061 9.768 88.9461 11.464 88.6421 13.256C89.9221 11.8 90.9061 10.288 91.5941 8.72C92.2821 7.136 92.6341 5.656 92.6501 4.28C92.6501 3.304 92.4501 2.816 92.0501 2.816ZM95.0396 23.12C94.4316 23.12 93.9996 22.8 93.7436 22.16C93.5036 21.52 93.3836 20.496 93.3836 19.088C93.3836 17.008 93.6796 15.032 94.2716 13.16C94.4156 12.696 94.6476 12.36 94.9676 12.152C95.3036 11.928 95.7676 11.816 96.3596 11.816C96.6796 11.816 96.9036 11.856 97.0316 11.936C97.1596 12.016 97.2236 12.168 97.2236 12.392C97.2236 12.648 97.1036 13.224 96.8636 14.12C96.7036 14.76 96.5756 15.32 96.4796 15.8C96.3836 16.28 96.3036 16.872 96.2396 17.576C96.7676 16.2 97.3596 15.08 98.0156 14.216C98.6716 13.352 99.3116 12.736 99.9356 12.368C100.576 12 101.16 11.816 101.688 11.816C102.728 11.816 103.248 12.336 103.248 13.376C103.248 13.584 103.176 14.088 103.032 14.888C102.904 15.528 102.84 15.928 102.84 16.088C102.84 16.648 103.04 16.928 103.44 16.928C103.888 16.928 104.464 16.576 105.168 15.872C105.376 15.664 105.592 15.56 105.816 15.56C106.024 15.56 106.184 15.656 106.296 15.848C106.424 16.024 106.488 16.264 106.488 16.568C106.488 17.16 106.328 17.624 106.008 17.96C105.56 18.424 105.032 18.824 104.424 19.16C103.832 19.48 103.2 19.64 102.528 19.64C101.68 19.64 101.032 19.424 100.584 18.992C100.152 18.56 99.9356 17.976 99.9356 17.24C99.9356 17 99.9596 16.76 100.008 16.52C100.04 16.2 100.056 15.984 100.056 15.872C100.056 15.616 99.9676 15.488 99.7916 15.488C99.5516 15.488 99.2316 15.76 98.8316 16.304C98.4476 16.832 98.0636 17.536 97.6796 18.416C97.2956 19.296 96.9836 20.224 96.7436 21.2C96.5676 21.952 96.3596 22.464 96.1196 22.736C95.8956 22.992 95.5356 23.12 95.0396 23.12ZM107.401 10.232C106.729 10.232 106.225 10.08 105.889 9.776C105.553 9.456 105.385 9.016 105.385 8.456C105.385 7.896 105.601 7.432 106.033 7.064C106.481 6.68 107.033 6.488 107.689 6.488C108.281 6.488 108.761 6.632 109.129 6.92C109.497 7.208 109.681 7.616 109.681 8.144C109.681 8.784 109.473 9.296 109.057 9.68C108.641 10.048 108.089 10.232 107.401 10.232ZM107.209 23.12C106.169 23.12 105.409 22.752 104.929 22.016C104.465 21.28 104.233 20.304 104.233 19.088C104.233 18.368 104.321 17.448 104.497 16.328C104.689 15.192 104.929 14.136 105.217 13.16C105.361 12.648 105.553 12.296 105.793 12.104C106.033 11.912 106.417 11.816 106.945 11.816C107.761 11.816 108.169 12.088 108.169 12.632C108.169 13.032 108.017 13.96 107.713 15.416C107.329 17.176 107.137 18.368 107.137 18.992C107.137 19.472 107.201 19.84 107.329 20.096C107.457 20.352 107.673 20.48 107.977 20.48C108.265 20.48 108.625 20.28 109.057 19.88C109.489 19.48 110.065 18.848 110.785 17.984C110.977 17.76 111.193 17.648 111.433 17.648C111.641 17.648 111.801 17.744 111.913 17.936C112.041 18.128 112.105 18.392 112.105 18.728C112.105 19.368 111.953 19.864 111.649 20.216C110.065 22.152 108.585 23.12 107.209 23.12ZM114.748 23.12C113.18 23.12 111.956 22.68 111.076 21.8C110.212 20.904 109.78 19.728 109.78 18.272C109.78 16.976 110.036 15.84 110.548 14.864C111.06 13.888 111.724 13.136 112.54 12.608C113.356 12.08 114.212 11.816 115.108 11.816C115.988 11.816 116.668 12.08 117.148 12.608C117.644 13.12 117.892 13.784 117.892 14.6C117.892 15.272 117.74 15.84 117.436 16.304C117.148 16.768 116.764 17 116.284 17C115.98 17 115.732 16.928 115.54 16.784C115.364 16.64 115.276 16.44 115.276 16.184C115.276 16.072 115.292 15.944 115.324 15.8C115.356 15.656 115.38 15.552 115.396 15.488C115.476 15.248 115.516 15.024 115.516 14.816C115.516 14.608 115.46 14.448 115.348 14.336C115.252 14.224 115.108 14.168 114.916 14.168C114.548 14.168 114.204 14.336 113.884 14.672C113.564 14.992 113.308 15.432 113.116 15.992C112.924 16.552 112.828 17.168 112.828 17.84C112.828 19.696 113.636 20.624 115.252 20.624C115.908 20.624 116.612 20.408 117.364 19.976C118.132 19.528 118.884 18.864 119.62 17.984C119.812 17.76 120.028 17.648 120.268 17.648C120.476 17.648 120.636 17.744 120.748 17.936C120.876 18.128 120.94 18.392 120.94 18.728C120.94 19.336 120.788 19.832 120.484 20.216C119.732 21.144 118.828 21.864 117.772 22.376C116.732 22.872 115.724 23.12 114.748 23.12ZM121.525 23.12C120.613 23.12 119.869 22.76 119.293 22.04C118.733 21.32 118.453 20.376 118.453 19.208C118.453 17.928 118.749 16.72 119.341 15.584C119.933 14.432 120.717 13.512 121.693 12.824C122.685 12.12 123.733 11.768 124.837 11.768C125.189 11.768 125.421 11.84 125.533 11.984C125.661 12.112 125.765 12.352 125.845 12.704C126.149 12.64 126.485 12.608 126.853 12.608C127.237 12.608 127.533 12.704 127.741 12.896C127.949 13.088 128.053 13.36 128.053 13.712C128.053 14.08 127.973 14.72 127.813 15.632C127.637 16.608 127.501 17.544 127.405 18.44C127.309 19.32 127.261 20.312 127.261 21.416C127.261 22.024 127.133 22.464 126.877 22.736C126.637 22.992 126.237 23.12 125.677 23.12C125.133 23.12 124.725 22.992 124.453 22.736C124.197 22.464 124.069 22.032 124.069 21.44L124.093 21.056C123.597 22.432 122.741 23.12 121.525 23.12ZM122.461 20.696C122.909 20.696 123.317 20.384 123.685 19.76C124.053 19.136 124.381 18.024 124.669 16.424L125.125 14C124.469 14.016 123.861 14.272 123.301 14.768C122.741 15.248 122.293 15.888 121.957 16.688C121.621 17.488 121.453 18.336 121.453 19.232C121.453 19.712 121.541 20.08 121.717 20.336C121.909 20.576 122.157 20.696 122.461 20.696Z" fill="black"/>
</svg>
